<svg width="2698px" height="2697px" xmlns="http://www.w3.org/2000/svg">
  <g fill="#D8D8D8" fill-rule="evenodd">
    <path d="M1349.3 615.7a732.6 732.6 0 110 1465.2 732.6 732.6 0 010-1465.2zm0 20.3a712.3 712.3 0 100 1424.6 712.3 712.3 0 000-1424.6z"/>
    <path d="M1349.3 657.3a691 691 0 110 1382 691 691 0 010-1382zm.5 10.2a681.3 681.3 0 100 1362.6 681.3 681.3 0 000-1362.6z"/>
    <path d="M1349.8.3v3.5l14.8 53.2c-6.3-3.7-9.6-2.4-9.6 3.7v.3c0 1.3 10 32 29.9 92.1-18 10-27.1 27-27.1 51.2 0 12 14 27.2 14 37.6 0 14.8-14 24.6-3.6 75.4 10.5 50.8 66.6 85.5 64 113.8-2.8 28.3 0-8-15.6-8-27.2 0-33.4 16.9-28.7 38.7 4.5 21 28.7 50.2 60.4 14.7 9.8-11.1 7.2-36.1-8-75.1 17.5 9.1 9.6-5.6-23.7-44.1-6-7-13.3-45.4-22-115.4 32.5 70.1 56.2 112.4 71.1 127 39.7 38.6 47.3 72.7 29.4 118-17.8 45-23.7 48.4-63 53.4-8.1 1-46.3-1.8-60.4-18.3-2.6-3 19 3.7 16.2 0-5.1-6.6-13.5-6.6-25.2 0 9.2 33.3 16 51.9 20.1 55.7 2.9 2.6 37.4-16.2 49.3 0 12 16.4 41 29.2 86.7 38.5l1.4.2-157-14.8c5.7 1.7 12.3 4.3 19.9 7.8l-33.8 123.5-33.8-123.5c7.8-3.6 14.7-6.2 20.5-7.9l-157.6 15c46.6-9.4 76-22.3 88-38.8 12-16.2 46.5 2.6 49.4 0 4.2-3.8 10.9-22.4 20.1-55.7-11.7-6.6-20.1-6.6-25.2 0-2.8 3.7 18.8-3 16.1 0-14 16.5-52.2 19.4-60.3 18.3-39.3-5-45.2-8.4-63-53.3-18-45.4-10.3-79.5 29.3-118.1 15-14.6 38.7-56.9 71.1-127-8.6 70-15.9 108.4-21.9 115.4-33.3 38.5-41.2 53.2-23.6 44-15.3 39-18 64.1-8 75.2 31.6 35.5 55.8 6.4 60.3-14.7 4.7-21.8-1.5-38.7-28.7-38.7-15.5 0-12.8 36.3-15.5 8-2.7-28.3 53.4-63 63.9-113.8 10.4-50.8-3.6-60.6-3.6-75.4 0-10.4 14-25.6 14-37.6 0-24.2-9-41.3-27.1-51.2 20-60 30-90.8 30-92.1 0-6.4-3.3-7.7-9.7-4l14.8-53.2V.3l.5 1.8.5-1.8zm13.7 648.9h-26.4l13.2 56.8 13.2-56.8zm-14.2-105.6l-8.3 56.6a38.6 38.6 0 0116.7-.1l-8.4-56.5zm0-181.7l-.3.5c-12.4 19.6-18.6 32.6-18.6 39 0 6.3 6.1 4.7 18.4-4.9v-.8l.5.4.5-.4v.8c12.3 9.6 18.4 11.2 18.4 4.9 0-6.5-6.3-19.6-18.9-39.5zM1.3 1347.8h3.5L58 1333c-3.7 6.3-2.4 9.6 3.7 9.6h.3c1.3 0 32-10 92.1-29.9 10 18 27 27.1 51.2 27.1 12 0 27.2-14 37.6-14 14.8 0 24.6 14 75.4 3.6 50.8-10.5 85.5-66.6 113.8-64 28.3 2.8-8 0-8 15.6 0 27.2 16.9 33.4 38.7 28.7 21-4.5 50.2-28.7 14.7-60.4-11.1-9.8-36.1-7.2-75.1 8 9.1-17.5-5.6-9.6-44.1 23.7-7 6-45.4 13.3-115.4 22 70.1-32.5 112.4-56.2 127-71.2 38.6-39.6 72.7-47.2 118-29.3 45 17.8 48.4 23.7 53.4 63 1 8.1-1.8 46.3-18.3 60.3-3 2.7 3.7-19 0-16.1-6.6 5.1-6.6 13.5 0 25.2 33.3-9.2 51.9-16 55.7-20.1 2.6-2.9-16.2-37.4 0-49.3 16.4-12 29.2-41 38.5-86.7l.2-1.4-14.8 157c1.7-5.7 4.3-12.3 7.8-19.9l123.5 33.8-123.5 33.8c-3.6-7.8-6.2-14.7-7.9-20.5l15 157.6c-9.4-46.6-22.3-76-38.8-88-16.2-12 2.6-46.5 0-49.4-3.8-4.2-22.4-10.9-55.7-20.1-6.6 11.7-6.6 20.1 0 25.2 3.7 2.8-3-18.8 0-16.2 16.5 14.1 19.4 52.3 18.3 60.4-5 39.3-8.4 45.2-53.3 63-45.4 18-79.5 10.3-118.1-29.4-14.6-14.9-56.9-38.6-127-71 70 8.6 108.4 15.9 115.4 21.9 38.5 33.3 53.2 41.2 44 23.6 39 15.3 64.1 18 75.2 8 35.5-31.6 6.4-55.8-14.7-60.3-21.8-4.7-38.7 1.5-38.7 28.7 0 15.5 36.3 12.8 8 15.5-28.3 2.7-63-53.4-113.8-63.9-50.8-10.4-60.6 3.5-75.4 3.5-10.4 0-25.6-14-37.6-14-24.2 0-41.3 9.1-51.2 27.2-60-20-90.8-30-92.1-30-6.4 0-7.7 3.3-4 9.7l-53.2-14.8H1.3l1.8-.5-1.8-.5zm648.9-13.7v26.4l56.8-13.2-56.8-13.2zm-105.6 14.2l56.6 8.3a38.6 38.6 0 01-.1-16.7l-56.5 8.4zm-181.7 0l.5.3c19.6 12.4 32.6 18.6 39 18.6 6.3 0 4.7-6.1-4.9-18.4h-.8l.4-.5-.4-.5h.8c9.6-12.3 11.2-18.4 4.9-18.4-6.5 0-19.6 6.3-39.5 18.9zM1348.8 2696.3v-3.5l-14.8-53.2c6.3 3.7 9.6 2.4 9.6-3.7v-.3c0-1.3-10-32-29.9-92.1 18-10 27.1-27 27.1-51.2 0-12-14-27.2-14-37.6 0-14.8 14-24.6 3.6-75.4-10.5-50.8-66.6-85.5-64-113.8 2.8-28.3 0 8 15.6 8 27.2 0 33.4-17 28.7-38.7-4.5-21-28.7-50.2-60.4-14.7-9.8 11-7.2 36.1 8 75.1-17.5-9.1-9.6 5.6 23.7 44.1 6 7 13.3 45.4 22 115.4-32.5-70.1-56.2-112.4-71.2-127-39.6-38.6-47.2-72.7-29.3-118 17.8-45 23.7-48.4 63-53.4 8.1-1 46.3 1.8 60.3 18.3 2.7 3-19-3.7-16.1 0 5.1 6.6 13.5 6.6 25.2 0-9.2-33.3-16-51.9-20.1-55.7-2.9-2.6-37.4 16.2-49.3 0-12-16.4-41-29.2-86.7-38.5l-1.4-.2 157 14.8c-5.7-1.7-12.3-4.3-19.9-7.8l33.8-123.5 33.8 123.5c-7.8 3.5-14.7 6.2-20.5 7.9l157.6-15c-46.6 9.4-76 22.3-88 38.8-12 16.2-46.5-2.6-49.4 0-4.2 3.8-10.9 22.4-20.1 55.7 11.7 6.6 20.1 6.6 25.2 0 2.8-3.7-18.8 3-16.2 0 14.1-16.5 52.3-19.4 60.4-18.3 39.3 5 45.2 8.4 63 53.3 18 45.4 10.3 79.5-29.4 118.1-14.9 14.6-38.6 56.9-71 127 8.6-70 15.9-108.4 21.9-115.4 33.3-38.5 41.2-53.2 23.6-44 15.3-39 18-64.1 8-75.2-31.6-35.5-55.8-6.4-60.3 14.7-4.7 21.8 1.5 38.7 28.7 38.7 15.5 0 12.8-36.3 15.5-8 2.7 28.3-53.4 63-63.9 113.8-10.4 50.8 3.5 60.6 3.5 75.4 0 10.4-14 25.6-14 37.6 0 24.2 9.1 41.3 27.2 51.2-20 60-30 90.8-30 92.1 0 6.4 3.3 7.7 9.7 4l-14.8 53.2v3.5l-.5-1.8-.5 1.8zm-13.7-648.9h26.4l-13.2-56.8-13.2 56.8zm14.2 105.6l8.3-56.6a38.6 38.6 0 01-16.7.1l8.4 56.5zm0 181.7l.3-.5c12.4-19.6 18.6-32.6 18.6-39 0-6.3-6.1-4.7-18.4 4.9v.8l-.5-.4-.5.4v-.8c-12.3-9.6-18.4-11.2-18.4-4.9 0 6.5 6.3 19.6 18.9 39.5zM2697.3 1348.8h-3.5l-53.2 14.8c3.7-6.3 2.4-9.6-3.7-9.6h-.3c-1.3 0-32 10-92.1 29.9-10-18-27-27.1-51.2-27.1-12 0-27.2 14-37.6 14-14.8 0-24.6-14-75.4-3.6-50.8 10.5-85.5 66.6-113.8 64-28.3-2.8 8 0 8-15.6 0-27.2-17-33.4-38.7-28.7-21 4.5-50.2 28.7-14.7 60.4 11 9.8 36.1 7.2 75.1-8-9.1 17.5 5.6 9.6 44.1-23.7 7-6 45.4-13.3 115.4-22-70.1 32.5-112.4 56.2-127 71.1-38.6 39.7-72.7 47.3-118 29.4-45-17.8-48.4-23.7-53.4-63-1-8.1 1.8-46.3 18.3-60.4 3-2.6-3.7 19 0 16.2 6.6-5.1 6.6-13.5 0-25.2-33.3 9.2-51.9 16-55.7 20.1-2.6 2.9 16.2 37.4 0 49.3-16.4 12-29.2 41-38.5 86.7l-.2 1.4 14.8-157c-1.7 5.7-4.3 12.3-7.8 19.9l-123.5-33.8 123.5-33.8c3.5 7.8 6.2 14.7 7.9 20.5l-15-157.6c9.4 46.6 22.3 76 38.8 88 16.2 12-2.6 46.5 0 49.4 3.8 4.2 22.4 10.9 55.7 20.1 6.6-11.7 6.6-20.1 0-25.2-3.7-2.8 3 18.8 0 16.1-16.5-14-19.4-52.2-18.3-60.3 5-39.3 8.4-45.2 53.3-63 45.4-18 79.5-10.3 118.1 29.3 14.6 15 56.9 38.7 127 71.1-70-8.6-108.4-15.9-115.4-21.9-38.5-33.3-53.2-41.2-44-23.6-39-15.3-64.1-18-75.2-8-35.5 31.6-6.4 55.8 14.7 60.3 21.8 4.7 38.7-1.5 38.7-28.7 0-15.5-36.3-12.8-8-15.5 28.3-2.7 63 53.4 113.8 63.9 50.8 10.4 60.6-3.6 75.4-3.6 10.4 0 25.6 14 37.6 14 24.2 0 41.3-9 51.2-27.1 60 20 90.8 30 92.1 30 6.4 0 7.7-3.3 4-9.7l53.2 14.8h3.5l-1.8.5 1.8.5zm-648.9 13.7v-26.4l-56.8 13.2 56.8 13.2zm105.6-14.2l-56.6-8.3a38.6 38.6 0 01.1 16.7l56.5-8.4zm181.7 0l-.5-.3c-19.6-12.4-32.6-18.6-39-18.6-6.3 0-4.7 6.1 4.9 18.4h.8l-.4.5.4.5h-.8c-9.6 12.3-11.2 18.4-4.9 18.4 6.5 0 19.6-6.3 39.5-18.9zM1349.3 1111a237.4 237.4 0 110 474.7 237.4 237.4 0 010-474.8zm148.9 81.8c-47-43-112.3-65.2-179.9-55.2l.8 12.4-9.3 1.7-3.6-12-10.3 2.4 2 12.3-9 2.6-4.8-11.5c-3.4 1-6.8 2.2-10.1 3.5l3.4 12-8.9 3.5-5.9-11-9.6 4.5 4.6 11.7-8.4 4.4-7-10.3-9.2 5.5 5.8 11-7.9 5.4-8-9.5c-3 2-5.8 4.2-8.6 6.4l7 10.4-7.3 6-9-8.5-8 7.3 7.8 9.2-6.5 6.8-9.5-7.4a218.5 218.5 0 00-55 180l12-.7 1.7 9.4-11.5 3.4c.7 3.5 1.5 7 2.4 10.4l11.9-2 2.6 9.2-11.2 4.6 3.5 10.1 11.7-3.3 3.6 8.8-10.7 5.8 4.6 9.7 11.2-4.4 4.5 8.3-10 6.9 5.5 9.2 10.8-5.7 5.3 8-9.2 7.8c2 2.9 4.2 5.7 6.5 8.5l10-6.7 6.2 7.3-8.4 8.7c2.4 2.7 4.8 5.3 7.3 7.8l9.7-8 6.7 6.5-7.7 9.9a218.5 218.5 0 00179.5 54.8l-.7-11.7 9.3-1.7 3.3 11.3 10.6-2.5-2-11.5 9.1-2.6 4.5 10.8c3.5-1 6.9-2.2 10.2-3.5l-3.1-11.3 8.8-3.6 5.6 10.4 9.8-4.6-4.4-11 8.4-4.4 6.7 9.7c3.1-1.7 6.2-3.6 9.2-5.5l-5.4-10.5 7.8-5.3 7.7 9 8.6-6.5-6.5-9.8 7.3-6.1 8.5 8 7.5-6.9-7.8-9.4 6.4-6.7 9.7 7.5a218.5 218.5 0 0055.4-179.8l-12 .8-1.6-9.4 11.5-3.4-2.3-10.4-12 2-2.6-9.2 11.2-4.6c-1-3.4-2.2-6.8-3.4-10.1l-11.7 3.2-3.5-8.8 10.6-5.8-4.5-9.7-11.3 4.5-4.4-8.4 10-6.9-5.5-9.2-10.7 5.7-5.4-8 9.3-7.8c-2-2.9-4.2-5.7-6.5-8.5l-10 6.7-6.1-7.3 8.3-8.8-7.4-8-9.5 8-6.7-6.5zM1316 1158a199.7 199.7 0 1169.3 393.3 199.7 199.7 0 01-69.3-393.3zm-59.5 28.2c-6 0-9.2 13.4-9.6 40.3a6652.5 6652.5 0 0165.8 171.2c40 108 56.6 138 49.9 90.1l-.8-19.1c9.6-4.6 22.6-23.5 39.1-57l-49-184.4v-.2a6655.2 6655.2 0 0165.6 170.9c40 108 56.6 138 49.9 90l-1-22.6-78-238.6c-12.2-27-21.2-40.4-27.1-40.4-5.8 0-9 12.8-9.5 38.3l-.9-20.9-10.6 40.6c-22.8-70.7-29.7-70.7-20.9 0 8 63.1 20.1 129 36.7 197.7-.7 0-1.4 0-2-.3l-70.6-215.3c-12-27-21-40.3-27-40.3zm-9.6 40.3l17 200.5c-6 13.4-11.7 17.7-17 13-5.3-4.6-10.9-17.2-16.9-37.7 1.7 32.7 7.4 54.2 17 64.5 9.5 10.2 25.9-8.2 49.1-55.3l-49.2-185zm219.5 238.3v.6l.6 1.7-.6-2.3zm-21.3-220.1c-22.8-70.7-29.7-70.7-20.9 0 8.7 69.7 22.7 142.7 42 219.1l.2 1-10.7-260.7zm-93.1-15l16.8 197.5a39 39 0 01-8.2 12.8l-8.6-210.4zM396.5 394.8l2.5 2.5 48 27c-7 2-8.4 5.1-4.2 9.5l.2.2c1 1 29.7 15.6 86.4 44-5.8 19.8-.2 38.2 17 55.4 8.4 8.5 29 9.3 36.4 16.7 10.5 10.5 7.5 27.3 50.9 55.8 43.3 28.5 107.5 13.4 125.6 35.3 18.1 21.9-5.6-5.7-16.6 5.3-19.2 19.2-11.7 35.6 7 47.7 18.1 11.7 55.8 15.2 53.1-32.4-.8-14.8-20.4-30.6-58.8-47.4 19-6 3-10.7-47.9-14.5-9.1-.6-41.5-22.6-97-66 72.5 26.6 119.2 39.8 140 39.5 55.3-.7 84.9 18 104.2 62.8 19.2 44.4 17.4 50.9-6.8 82.2-5 6.5-34 31.4-55.6 29.8-4-.4 16-10.9 11.4-11.5-8.3-1-14.2 4.9-17.8 17.9 30 17 48 25.4 53.6 25 3.8-.1 15-37.8 34.8-34.8 20.1 3.1 49.6-8.3 88.6-34l1.2-.9-121.5 100.5c5.2-2.8 11.7-5.6 19.5-8.5l63.5 111.3-111.3-63.5c3-8 6-14.7 9-20l-101 122c26.4-39.6 38-69.5 35-89.8-3.1-19.8 34.6-31 34.8-34.8.3-5.7-8.1-23.5-25.1-53.6-13 3.6-19 9.5-17.9 17.8.6 4.6 11.1-15.4 11.5-11.4 1.6 21.6-23.3 50.6-29.8 55.6-31.3 24.2-37.8 26-82.2 6.8-44.8-19.3-63.5-48.9-62.8-104.2.3-20.8-13-67.5-39.5-140 43.4 55.5 65.4 87.9 66 97 3.8 50.9 8.6 66.8 14.5 48 16.8 38.3 32.6 57.9 47.4 58.7 47.6 2.7 44-35 32.4-53-12.1-18.8-28.5-26.3-47.7-7.1-11 11 16.6 34.7-5.3 16.6-21.9-18.1-6.8-82.3-35.3-125.6-28.5-43.4-45.3-40.4-55.8-50.9-7.4-7.3-8.2-28-16.7-36.5-17.2-17-35.6-22.7-55.4-17-28.4-56.6-43-85.3-44-86.3-4.5-4.5-7.7-3.1-9.6 4l-27.1-48-2.5-2.5 1.6.9-1-1.6zm468.5 449l-18.7 18.8 49.5 30.8L865 844zm-84.7-64.5l34.1 46c1.8-3 3.6-5.2 5.3-7 1.7-1.6 3.8-3.3 6.4-5l-45.8-34zM651.8 650.8l.2.6c5 22.6 9.8 36.2 14.3 40.7s7.7-1 9.6-16.5l-.5-.5.6-.1v-.6l.6.5c15.5-2 21-5.1 16.5-9.6s-18.3-9.4-41.3-14.5zM395.8 2301.1l2.5-2.5 27-48c2 7 5.1 8.4 9.5 4.2l.2-.2c1-1 15.6-29.7 44-86.4 19.8 5.8 38.2.2 55.4-17 8.5-8.5 9.3-29 16.7-36.4 10.5-10.5 27.3-7.5 55.8-50.9 28.5-43.3 13.4-107.5 35.3-125.6 21.9-18.1-5.7 5.6 5.3 16.6 19.2 19.2 35.6 11.7 47.7-7 11.7-18.1 15.2-55.8-32.4-53.1-14.8.8-30.6 20.4-47.4 58.8-6-19-10.7-3-14.5 47.9-.6 9.1-22.6 41.5-66 97 26.6-72.5 39.8-119.2 39.5-140-.7-55.3 18-84.9 62.8-104.2 44.4-19.2 50.9-17.4 82.2 6.8 6.5 5 31.4 34 29.8 55.6-.4 4-10.9-16-11.5-11.4-1 8.3 4.9 14.2 17.9 17.8 17-30 25.4-48 25-53.6-.1-3.8-37.8-15-34.8-34.8 3.1-20.1-8.3-49.6-34-88.6l-.9-1.2 100.5 121.5c-2.8-5.2-5.6-11.7-8.5-19.5l111.3-63.5-63.5 111.3c-8-3-14.7-6-20-9l122 101c-39.6-26.4-69.5-38-89.8-35-19.8 3.1-31-34.6-34.8-34.8-5.7-.3-23.5 8.1-53.6 25.1 3.6 13 9.5 19 17.8 17.9 4.6-.6-15.4-11.1-11.4-11.5 21.6-1.6 50.6 23.3 55.6 29.8 24.2 31.3 26 37.8 6.8 82.2-19.3 44.8-48.9 63.5-104.2 62.8-20.8-.3-67.5 13-140 39.5 55.5-43.4 87.9-65.4 97-66 50.9-3.8 66.8-8.6 48-14.5 38.3-16.8 57.9-32.6 58.7-47.4 2.7-47.6-35-44-53-32.4-18.8 12.1-26.3 28.5-7.1 47.7 11 11 34.7-16.6 16.6 5.3-18.1 21.9-82.3 6.8-125.6 35.3-43.4 28.5-40.4 45.3-50.9 55.8-7.3 7.4-28 8.2-36.5 16.7-17 17.1-22.7 35.6-17 55.4-56.6 28.4-85.3 43-86.3 44-4.5 4.5-3.1 7.7 4 9.6l-48 27.1-2.5 2.5.9-1.6-1.6 1zm449-468.5l18.8 18.7 30.8-49.5-49.5 30.8zm-64.5 84.7l46-34.1a40.3 40.3 0 01-7-5.3 38.6 38.6 0 01-5-6.4l-34 45.8zm-128.5 128.5l.6-.2c22.6-5 36.2-9.8 40.7-14.3s-1-7.7-16.5-9.6l-.5.5-.1-.6h-.6l.5-.6c-2-15.5-5.1-21-9.6-16.5s-9.4 18.3-14.5 41.3zM2302.1 2301.8l-2.5-2.5-48-27c7-2 8.4-5.1 4.2-9.5l-.2-.2c-1-1-29.7-15.6-86.4-44 5.8-19.8.2-38.3-17-55.4-8.5-8.5-29-9.3-36.4-16.7-10.5-10.5-7.5-27.3-50.9-55.8-43.3-28.5-107.5-13.4-125.6-35.3-18.1-21.9 5.6 5.7 16.6-5.3 19.2-19.2 11.7-35.6-7-47.7-18.1-11.7-55.8-15.2-53.1 32.4.8 14.8 20.4 30.6 58.8 47.4-19 6-3 10.7 47.9 14.4 9.1.7 41.5 22.7 97 66.1-72.5-26.6-119.2-39.8-140-39.5-55.3.7-84.9-18-104.2-62.8-19.2-44.4-17.4-50.9 6.8-82.2 5-6.5 34-31.4 55.6-29.8 4 .4-16 10.9-11.4 11.5 8.3 1 14.2-4.9 17.8-17.9-30-17-48-25.4-53.6-25-3.8.1-15 37.8-34.8 34.8-20.1-3.1-49.6 8.3-88.6 34l-1.2.9 121.5-100.5c-5.2 2.8-11.7 5.6-19.5 8.5l-63.5-111.3 111.3 63.5c-3 8-6 14.7-9 20l101-122c-26.4 39.6-38 69.5-35 89.8 3.1 19.8-34.6 31-34.8 34.8-.3 5.7 8.1 23.5 25.1 53.6 13-3.6 19-9.5 17.9-17.8-.6-4.6-11.1 15.4-11.5 11.4-1.6-21.6 23.3-50.6 29.8-55.6 31.3-24.2 37.8-26 82.2-6.8 44.8 19.3 63.5 48.9 62.8 104.2-.3 20.8 13 67.5 39.5 140-43.4-55.5-65.4-87.9-66-97-3.8-50.9-8.6-66.8-14.5-48-16.8-38.3-32.6-57.9-47.4-58.7-47.6-2.7-44 35-32.4 53 12.1 18.8 28.5 26.3 47.7 7.1 11-11-16.6-34.7 5.3-16.6 21.9 18 6.8 82.3 35.3 125.6 28.5 43.4 45.3 40.4 55.8 50.9 7.4 7.3 8.2 28 16.7 36.5 17.1 17 35.6 22.7 55.4 17 28.4 56.6 43 85.3 44 86.3 4.5 4.5 7.7 3.1 9.6-4l27.1 48 2.5 2.5-1.6-.9 1 1.6zm-468.5-449.1l18.7-18.7-49.5-30.8 30.8 49.5zm84.7 64.6l-34.1-46a40.3 40.3 0 01-5.3 7 38.6 38.6 0 01-6.4 5l45.8 34zm128.5 128.5l-.2-.6c-5-22.6-9.8-36.2-14.3-40.7s-7.7 1-9.6 16.5l.5.5h-.6v.7l-.6-.5c-15.5 2-21 5.1-16.5 9.6s18.3 9.3 41.3 14.5zM2302.8 395.5l-2.5 2.5-27 48c-2-7-5.1-8.4-9.5-4.2l-.2.2c-1 1-15.6 29.7-44 86.4-19.8-5.8-38.3-.2-55.4 17-8.5 8.4-9.3 29-16.7 36.4-10.5 10.5-27.3 7.5-55.8 50.9-28.5 43.3-13.4 107.5-35.3 125.6-21.9 18.1 5.7-5.6-5.3-16.6-19.2-19.2-35.6-11.7-47.7 7-11.7 18.1-15.2 55.8 32.4 53.1 14.8-.8 30.6-20.4 47.4-58.8 6 19 10.7 3 14.4-47.9.7-9.1 22.7-41.5 66.1-97-26.6 72.5-39.8 119.2-39.5 140 .7 55.3-18 84.9-62.8 104.2-44.4 19.2-50.9 17.4-82.2-6.8-6.5-5-31.4-34-29.8-55.6.4-4 10.9 16 11.5 11.4 1-8.3-4.9-14.2-17.9-17.8-17 30-25.4 48-25 53.6.1 3.8 37.8 15 34.8 34.8-3.1 20.1 8.3 49.6 34 88.6l.9 1.2-100.5-121.5c2.8 5.2 5.6 11.7 8.5 19.5l-111.3 63.5 63.5-111.3c8 3 14.7 6 20 9l-122-101c39.6 26.4 69.5 38 89.8 35 19.8-3.1 31 34.6 34.8 34.8 5.7.3 23.5-8.1 53.6-25.1-3.6-13-9.5-19-17.8-17.9-4.6.6 15.4 11.1 11.4 11.5-21.6 1.6-50.6-23.3-55.6-29.8-24.2-31.3-26-37.8-6.8-82.2 19.3-44.8 48.9-63.5 104.2-62.8 20.8.3 67.5-13 140-39.5-55.5 43.4-87.9 65.4-97 66-50.9 3.8-66.8 8.6-48 14.5-38.3 16.8-57.9 32.6-58.7 47.4-2.7 47.6 35 44 53 32.4 18.8-12.1 26.3-28.5 7.1-47.7-11-11-34.7 16.6-16.6-5.3 18-21.9 82.3-6.8 125.6-35.3 43.4-28.5 40.4-45.3 50.9-55.8 7.3-7.4 28-8.2 36.5-16.7 17-17.2 22.7-35.6 17-55.4 56.6-28.4 85.3-43 86.3-44 4.5-4.5 3.1-7.7-4-9.6l48-27.1 2.5-2.5-.9 1.6 1.6-1zM1853.7 864l-18.7-18.7-30.8 49.5 49.5-30.8zm64.6-84.7l-46 34.1c3 1.8 5.2 3.6 7 5.3 1.6 1.7 3.3 3.8 5 6.4l34-45.8zm128.5-128.5l-.6.2c-22.6 5-36.2 9.8-40.7 14.3s1 7.7 16.5 9.6l.5-.5v.6h.7l-.5.6c2 15.5 5.1 21 9.6 16.5s9.3-18.3 14.5-41.3zM600.8 1139c-21.7-1.2-50.1-31-85.2-89.5a394.8 394.8 0 0155 26c26.8 16.4 26 16.1 40.7 16.5 9.8.3 17.9-4.1 24.2-13.2-20.8 4.4-36 4.6-45.4.8-12-4.9-13.3-26.7-40.7-46.3-25-17.9-37.3-8.6-46.8-12.5-14.7-6-6.8-6.7-17.7-15.8-3.5-3-11.3-8-23.2-15.3l.7.2c13.3 2.9 22.1 4.5 26.7 4.9 14.1 1 9-5 23.6.9 9.6 3.9 12 19 42.4 23.5 33.3 5 49.4-9.9 61.4-5 9.5 3.8 20.2 14.5 32.1 32.1 1.8-11-1-19.7-8.2-26.3-10.8-10-10.1-9.6-40.7-16.4A394.8 394.8 0 01542 984c65.9-17.7 107-19.4 123.5-5.2 33 28.4 40.5 62.5 22.6 102.2-14.7 41-43.8 60.4-87.3 58zM2097.8 1557.6c21.7 1.2 50.1 31 85.2 89.5a394.8 394.8 0 01-55-26c-26.8-16.4-26-16.1-40.7-16.5-9.8-.3-17.9 4.1-24.2 13.2 20.8-4.4 36-4.6 45.4-.8 12 4.9 13.3 26.7 40.7 46.3 25 17.9 37.3 8.6 46.8 12.5 14.7 6 6.8 6.7 17.7 15.8 3.5 3 11.3 8 23.1 15.3l-.6-.2c-13.3-2.9-22.1-4.5-26.7-4.9-14.1-1-9 5-23.6-.9-9.6-3.9-12-19-42.4-23.5-33.3-5-49.4 9.9-61.4 5-9.5-3.8-20.2-14.5-32.1-32.1-1.8 11 1 19.7 8.2 26.3 10.8 10 10.1 9.6 40.7 16.4 14.2 3.2 33.4 9.7 57.7 19.5-65.9 17.7-107 19.4-123.5 5.2-33-28.4-40.5-62.5-22.6-102.2 14.7-41 43.8-60.4 87.3-58zM1140 2096.8c-1.2 21.7-31 50.1-89.5 85.2a394.8 394.8 0 0126-55c16.4-26.8 16.1-26 16.5-40.7.3-9.8-4.1-17.9-13.2-24.2 4.4 20.8 4.6 36 .8 45.4-4.9 12-26.7 13.3-46.3 40.7-17.9 25-8.6 37.3-12.5 46.8-6 14.7-6.7 6.8-15.8 17.7-3 3.5-8 11.3-15.3 23.1l.2-.6c2.9-13.3 4.5-22.1 4.9-26.7 1-14.1-5-9 .9-23.6 3.9-9.6 19-12 23.5-42.4 5-33.3-9.9-49.4-5-61.4 3.8-9.5 14.5-20.2 32.1-32.1-11-1.8-19.7 1-26.3 8.2-10 10.8-9.6 10.1-16.4 40.7a394.8 394.8 0 01-19.5 57.7c-17.7-65.9-19.4-107-5.2-123.5 28.4-33 62.5-40.5 102.2-22.6 41 14.7 60.4 43.8 58 87.3zM1559 598.9c1.1-21.7 31-50.1 89.5-85.3a394.8 394.8 0 01-26.1 55c-16.3 26.9-16 26.1-16.4 40.8-.3 9.8 4 17.8 13.2 24.2-4.4-20.8-4.7-36-.8-45.4 4.8-12 26.6-13.3 46.3-40.7 17.8-25 8.6-37.3 12.5-46.8 5.9-14.7 6.6-6.8 15.7-17.7 3-3.5 8-11.3 15.4-23.2l-.2.7c-3 13.3-4.6 22.1-5 26.7-1 14.1 5 9-.8 23.6-3.9 9.6-19 12-23.6 42.4-4.9 33.3 10 49.4 5 61.4-3.7 9.5-14.5 20.2-32 32.1 10.9 1.8 19.7-1 26.3-8.2 9.9-10.8 9.6-10.1 16.4-40.7 3.2-14.2 9.7-33.4 19.5-57.7 17.7 65.9 19.4 107 5.2 123.5-28.5 33-62.6 40.5-102.3 22.6-41-14.7-60.3-43.8-57.9-87.3zM968 671c-14.5-16.1-13.5-57.3 3-123.5 10.3 24 17.1 43.2 20.5 57.3 7.4 30.5 7 29.8 17.2 40.4 6.7 7.1 15.5 9.7 26.4 7.8-17.8-11.6-28.7-22.2-32.7-31.6-5-12 9.5-28.2 4-61.4-5-30.4-20.2-32.5-24.3-42-6.1-14.5 0-9.5-1.3-23.6-.4-4.6-2.3-13.7-5.5-27.3l.3.6A232.8 232.8 0 00991 490c9.3 10.8 9.9 2.9 16 17.4 4.1 9.5-5 22 13.4 46.6 20 27.1 42 28 47 39.9 4 9.4 4 24.5 0 45.4 9-6.5 13.2-14.6 12.8-24.4-.7-14.7-.4-14-17.2-40.4a394.8 394.8 0 01-27-54.6c59 34 89.4 62 91 83.7 3.2 43.4-15.6 72.8-56.4 88.2-39.4 18.6-73.6 11.7-102.6-20.7zM1730.6 2025.5c14.5 16.2 13.5 57.4-3 123.6a394.8 394.8 0 01-20.5-57.3c-7.4-30.5-7-29.8-17.2-40.4-6.7-7.1-15.5-9.7-26.4-7.8 17.8 11.6 28.7 22.1 32.7 31.6 5 11.9-9.5 28.2-4 61.4 5 30.4 20.2 32.5 24.3 42 6.1 14.5 0 9.5 1.3 23.6.4 4.6 2.3 13.7 5.5 27.3l-.4-.6a232.8 232.8 0 00-15.3-22.3c-9.3-10.8-10-2.9-16-17.4-4.1-9.5 5-22-13.4-46.6-20-27.1-42-28-47-39.9-4-9.4-4-24.5 0-45.4-9 6.5-13.2 14.6-12.8 24.4.7 14.7.4 14 17.2 40.4a394.8 394.8 0 0127 54.6c-59-34-89.4-62-91-83.7-3.2-43.4 15.6-72.8 56.4-88.2 39.4-18.6 73.6-11.7 102.6 20.7zM672 1729.6c-16.1 14.5-57.3 13.5-123.5-3 24-10.3 43.2-17.1 57.3-20.5 30.5-7.4 29.8-7 40.4-17.2 7.1-6.7 9.7-15.5 7.8-26.4-11.6 17.8-22.2 28.7-31.6 32.7-12 5-28.2-9.5-61.4-4-30.4 5-32.5 20.2-42 24.3-14.5 6.1-9.5 0-23.6 1.3-4.6.4-13.7 2.3-27.3 5.5l.6-.4a232.8 232.8 0 0022.3-15.3c10.8-9.3 2.9-10 17.4-16 9.5-4.1 22 5 46.6-13.4 27.1-20 28-42 39.9-47 9.4-4 24.5-4 45.4 0-6.5-9-14.6-13.2-24.4-12.8-14.7.7-14 .4-40.4 17.2a394.8 394.8 0 01-54.6 27c34-59 62-89.4 83.7-91 43.4-3.2 72.8 15.6 88.2 56.4 18.6 39.4 11.7 73.6-20.7 102.6zM2027.4 966.6c16.2-14.5 57.4-13.5 123.6 3a394.8 394.8 0 01-57.3 20.5c-30.5 7.4-29.8 7.1-40.4 17.2-7.1 6.7-9.7 15.5-7.8 26.4 11.6-17.8 22.1-28.6 31.6-32.6 11.9-5.1 28.2 9.5 61.4 4 30.4-5 32.5-20.3 42-24.3 14.5-6.2 9.5 0 23.6-1.4 4.6-.4 13.7-2.2 27.3-5.5l-.6.4a232.8 232.8 0 00-22.3 15.3c-10.8 9.3-2.9 10-17.4 16-9.5 4.1-22-5-46.6 13.4-27.1 20.1-28 42-39.9 47-9.4 4-24.5 4-45.4 0 6.5 9 14.6 13.2 24.4 12.8 14.7-.7 14-.4 40.4-17.2a394.8 394.8 0 0154.6-27c-34 59.1-62 89.4-83.7 91-43.4 3.2-72.8-15.6-88.2-56.3-18.6-39.4-11.7-73.7 20.7-102.7z"/>
    <path d="M1349.5 760a588.5 588.5 0 110 1177 588.5 588.5 0 010-1177zm0 17a571.5 571.5 0 100 1143 571.5 571.5 0 000-1143z"/>
  </g>
</svg>
