<svg width="684px" height="684px" xmlns="http://www.w3.org/2000/svg">
  <path d="M341.9 0a341.9 341.9 0 110 683.8 341.9 341.9 0 010-683.8zm0 7.4a334.5 334.5 0 100 669 334.5 334.5 0 000-669zm-9.1 7.5l2 18H349l2-18 16 .9v18l14.2 1.5 3.8-17.6c5.3.7 10.6 1.6 15.8 2.5l-1.7 18 13.8 3 5.7-17.2c5.2 1.3 10.4 2.7 15.5 4.2l-3.7 17.7 13.5 4.4 7.5-16.4c5 1.7 10 3.7 14.9 5.7L460.8 57l13 5.7 9.1-15.5c4.8 2.3 9.5 4.7 14.2 7.3L490 70.9l12.3 7.1 10.7-14.5c4.5 2.8 9 5.7 13.4 8.8l-9 15.6 11.5 8.4L541 83a326 326 0 01126.7 249.3l-17.3 2v14.1l17.4 2a327 327 0 01-.9 16l-17.5.2-1.5 14 17.2 3.9c-.7 5.3-1.6 10.6-2.6 15.9l-17.4-1.7-3 13.8 16.7 5.6c-1.3 5.2-2.6 10.4-4.2 15.5l-17.2-3.5-4.4 13.5 16 7.2-5.7 15-16.8-5.2-5.7 12.9 15 8.9c-2.2 4.8-4.7 9.6-7.2 14.3l-16.1-7-7 12.3 14 10.4c-2.8 4.5-5.7 9-8.8 13.5l-15.2-8.7-8.3 11.5 12.9 11.8A326 326 0 01351 667.7l-2-17.9h-14.2l-2 18a327 327 0 01-16-.8l-.1-18-14.1-1.5-3.9 17.6c-5.3-.7-10.5-1.5-15.8-2.4l1.8-18-13.9-3-5.7 17.2c-5.2-1.2-10.3-2.6-15.5-4.1l3.7-17.7-13.5-4.4-7.5 16.5-15-5.7 5.5-17.2-13-5.8-9 15.6c-4.9-2.3-9.6-4.7-14.3-7.3l7.2-16.5-12.3-7-10.7 14.4c-4.5-2.7-9-5.6-13.4-8.7l8.9-15.6-11.5-8.3-12.1 13.3A326 326 0 0115 350.5l18.4-2v-14.2l-18.5-2.1.9-15.9 18.5-.1 1.5-14-18.1-4c.6-5.3 1.5-10.6 2.4-15.8l18.6 1.8 2.9-13.8-17.7-5.9c1.3-5.1 2.6-10.2 4.1-15.3l18.3 3.7 4.4-13.5-17-7.6c1.8-5 3.7-10 5.7-14.9l17.7 5.7 5.8-13-16-9.4c2.2-4.7 4.7-9.5 7.2-14.1l17 7.4 7-12.3-14.8-11c2.7-4.5 5.6-8.9 8.6-13.3l16.1 9.2 8.4-11.5-13.7-12.5a326 326 0 01250-127.2zM117.5 178.7A276.7 276.7 0 10565.2 504a276.7 276.7 0 00-447.7-325.3z" fill="#D8D8D8" fill-rule="evenodd"/>
</svg>
