<svg width="300px" height="300px" xmlns="http://www.w3.org/2000/svg">
  <path d="M160.65 0l25.57 4.05-.54 18.06c3.6 1 7.15 2.14 10.64 3.43l10.16-14.9 23.07 11.75-6.07 16.92c3.13 2.07 6.16 4.26 9.1 6.58l14.2-10.98 18.3 18.3-10.94 14.16c2.34 2.93 4.55 5.97 6.64 9.11l16.83-6.03 11.75 23.07-14.8 10.1a131.6 131.6 0 013.44 10.7l17.95-.54 4.05 25.57-17.34 5.06c.14 3.72.13 7.42-.03 11.1l17.37 5.08-4.04 25.52-18.24-.53c-1.03 3.58-2.2 7.1-3.52 10.57l14.9 10.17-11.78 23.1-17.2-6.14c-2.03 3-4.18 5.92-6.45 8.75l11.22 14.52-18.34 18.34-14.67-11.33a132 132 0 01-8.71 6.26l6.26 17.5-23.11 11.78-10.59-15.5a132.4 132.4 0 01-10.08 3.2l.55 18.84-25.62 4.05-5.33-18.17c-3.52.13-7.02.13-10.5-.01l-5.4 18.49-25.57-4.05.58-19.28c-3.38-.95-6.7-2.04-9.97-3.25l-10.87 15.94-23.07-11.75 6.5-18.15c-2.91-1.94-5.75-3.99-8.5-6.15l-15.24 11.78-18.3-18.3 11.71-15.15c-2.19-2.76-4.27-5.6-6.25-8.54l-17.98 6.45-11.75-23.07 15.7-10.7c-1.24-3.3-2.34-6.68-3.32-10.12l-18.97.56L0 160.65l18.12-5.3c-.16-3.57-.18-7.12-.05-10.65L0 139.41l4.04-25.52 18.7.55c.97-3.52 2.09-6.99 3.34-10.4L10.9 93.69l11.78-23.1 17.25 6.16c2-3.02 4.12-5.96 6.36-8.81L35.11 53.45l18.34-18.34 14.4 11.12c2.84-2.28 5.79-4.43 8.83-6.47l-6.1-17.08 23.1-11.78 10.18 14.9c3.42-1.27 6.9-2.41 10.47-3.42l-.53-18.02L139.42.31l5.04 17.2c3.72-.18 7.42-.2 11.1-.05L160.65 0zm-26.92 47.3c-56.84 9-95.63 62.28-86.65 119 8.99 56.72 62.35 95.4 119.19 86.4 56.84-9 95.63-62.28 86.65-119-8.99-56.72-62.35-95.4-119.19-86.4zm109.54 88.38c8.1 51.12-26.87 99.14-78.1 107.26a93.94 93.94 0 01-95.65-45.02 30.83 30.83 0 0020.52 7.78 30.97 30.97 0 0030.95-31c0-17.11-13.85-30.99-30.95-30.99a30.97 30.97 0 00-30.86 28.57 94.33 94.33 0 01-1.43-7.22c-8.1-51.12 26.87-99.14 78.1-107.25 51.23-8.12 99.32 26.75 107.42 77.87zm-98.36 56.87A23.93 23.93 0 00121 216.51a23.93 23.93 0 0023.92 23.95 23.93 23.93 0 0023.92-23.95 23.93 23.93 0 00-23.92-23.96zm28.58-57.29l.86 12.68c-3.24-1.15-6.16-.72-8.75 1.29-3.88 3.01-5.24 4.82-4.44 8.94.51 2.69 3.18 3.07 8 1.14l.32-.13-27.44 20.42a56.89 56.89 0 0029.6 8.26 57.25 57.25 0 0056.52-48.3l-33.77 8c4.81-2.5 6.34-4.85 4.57-7.02-2.65-3.25-4.9-3.38-9.7-2.34-3.21.7-5.41 2.65-6.61 5.87l-9.16-8.8zm-1.85-62a57.26 57.26 0 00-57.21 57.3 57.27 57.27 0 0026.73 48.5l9.82-32.83c-.23 5.42 1.03 7.91 3.8 7.47 4.14-.66 5.37-2.55 6.88-7.24 1-3.12.4-6-1.79-8.65l11.91-3.44-11.75-5.53c2.73-2.29 3.89-5.07 3.47-8.35-.62-4.92-1.51-7-5.59-8.34-2.66-.88-4.4 1.3-5.23 6.5l-.05.33-3.84-35.97 25.09 26.07c-4.7-2.89-7.57-3-8.64-.35-1.6 3.98-.57 6 2.8 9.65 2.24 2.42 5.12 3.33 8.62 2.7l-3.35 12.7 10.88-7.31c.62 3.38 2.45 5.69 5.48 6.93 4.56 1.86 6.8 2.13 9.97-.62 2.07-1.8 1.06-4.3-3.02-7.5l-.27-.21 31.92 13.77a57.26 57.26 0 00-56.62-65.57z" fill="#D8D8D8" fill-rule="evenodd"/>
</svg>
