<svg width="300px" height="300px" xmlns="http://www.w3.org/2000/svg">
  <path d="M163 0l2 18 11 2 8-17 25 8-4 18 10 5 13-13 21 15-9 16 8 8 16-9 15 21-13 13 5 10 18-4 8 25-17 8 2 11 18 2v26l-18 2-2 11 16 8-8 25-18-4-5 10 14 12-16 21-16-8-7 7 8 16-21 16-12-14-10 5 4 18-25 8-8-17-11 2-2 19h-26l-2-19-11-2-8 18-25-8 4-19-9-5-14 14-21-15 10-17-8-8-17 10-15-21 14-13-5-10-19 4-8-25 17-8-1-11-19-2v-26l19-2 1-11-16-8 8-25 18 4 5-10-14-12 16-21 15 8 8-8-8-15 21-16 12 13 10-5-4-17 25-8 8 16 11-2 2-18h26zm-45 51a104 104 0 1064 198 104 104 0 00-64-198zm122 70a94 94 0 11-179 58 94 94 0 01179-58z" fill="#D8D8D8" fill-rule="evenodd"/>
</svg>
