<svg width="300px" height="300px" xmlns="http://www.w3.org/2000/svg">
  <path d="M161 0l25 4v18l10 4 10-15 24 11-7 17 10 7 14-11 18 18-11 14 7 9 17-6 11 24-14 10 3 10h18l4 25-17 5v12l17 5-4 25h-18l-4 10 15 10-12 23-17-6-6 9 11 15-18 18-15-11-9 6 6 17-23 12-10-15-10 3v19l-25 4-6-18h-10l-6 18-25-4v-19l-10-4-10 16-24-11 7-19-9-6-15 12-18-18 12-15-7-9-18 7-11-24 15-10-3-10H4l-4-25 18-6v-10l-18-6 4-25h19l3-10-15-10 12-23 17 6 6-9-11-15 18-18 15 11 9-6-6-17 23-12 10 15 10-4V4l25-4 5 18 12-1 5-17zm-27 47a104 104 0 1032 206 104 104 0 00-32-206zm109 89a94 94 0 01-121 104 56 56 0 10-54-45 93 93 0 0168-137c51-8 99 27 107 78zm-44-51a33 33 0 100 65 33 33 0 000-65zm-1 12a21 21 0 110 42 21 21 0 010-42z" fill="#D8D8D8" fill-rule="evenodd"/>
</svg>
