<svg width="300px" height="300px" xmlns="http://www.w3.org/2000/svg">
  <path d="M161 0l25 4v18l10 4 10-15 24 11-7 17 10 7 14-11 18 18-11 14 7 9 17-6 11 24-14 10 3 10h18l4 25-17 5v12l17 5-4 25h-18l-4 10 15 10-12 23-17-6-6 9 11 15-18 18-15-11-9 6 6 17-23 12-10-15-10 3v19l-25 4-6-18h-10l-6 18-25-4v-19l-10-4-10 16-24-11 7-19-9-6-15 12-18-18 12-15-7-9-18 7-11-24 15-10-3-10H4l-4-25 18-6v-10l-18-6 4-25h19l3-10-15-10 12-23 17 6 6-9-11-15 18-18 15 11 9-6-6-17 23-12 10 15 10-4V4l25-4 5 18 12-1 5-17zm-27 47a104 104 0 1032 206 104 104 0 00-32-206zm109 89a94 94 0 01-136 97 24 24 0 10-28-22 94 94 0 11164-75zm-72 4l1 15c-4-1-8-1-11 2-5 3-6 6-5 11 0 3 4 3 10 1l-32 24c10 6 22 9 34 9 33 0 60-24 65-56l-37 9c6-3 8-6 6-9-3-4-6-4-12-3-4 1-6 4-8 7l-11-10zm-31-64a66 66 0 00-8 115l11-38c0 7 2 10 5 9 5-1 6-3 8-9 2-3 1-7-2-10l15-4-15-7c4-3 5-6 5-10-1-6-2-9-7-11-4-1-6 2-7 8v1l-5-44zm28-6c-10 0-19 3-27 6l30 32c-6-4-9-4-11-1-1 5 0 8 4 12 3 3 6 4 10 3l-4 16 14-9c1 4 3 7 7 8 5 3 8 3 12 0 2-3 1-6-4-10l34 15 1-6c0-36-30-66-66-66z" fill="#D8D8D8" fill-rule="evenodd"/>
</svg>
