<svg width="300px" height="300px" xmlns="http://www.w3.org/2000/svg">
  <path d="M186.2 4l-.5 18.1c3.6 1 7.1 2.2 10.6 3.4l10.2-14.9 23 11.8-6 17c3.1 2 6.1 4.2 9 6.5l14.3-11L265 53.2l-11 14.2c2.4 2.9 4.6 6 6.7 9l16.8-6 11.8 23.1-14.8 10.1c1.2 3.5 2.4 7 3.4 10.7l18-.5 4 25.5-17.3 5.1v11.1l17.3 5-4 25.6-18.3-.5c-1 3.6-2.2 7-3.5 10.5l14.9 10.2-11.8 23.1-17.2-6.1c-2 3-4.2 5.9-6.4 8.7l11.2 14.5-18.4 18.4-14.6-11.3a132 132 0 01-8.7 6.2l6.2 17.5-23 11.8-10.7-15.5c-3.3 1.2-6.6 2.3-10 3.2l.5 18.8-25.6 4-5.3-18h-10.5l-5.5 18.4-25.5-4 .6-19.3c-3.4-1-6.7-2-10-3.3l-10.9 16-23-11.8 6.5-18.1c-3-2-5.8-4-8.6-6.2l-15.2 11.8L35 246.8l11.7-15.2c-2.2-2.7-4.3-5.6-6.2-8.5l-18 6.4-11.8-23 15.7-10.7c-1.2-3.3-2.3-6.7-3.3-10.1l-19 .5-4-25.5 18.1-5.3c-.1-3.6-.2-7.2 0-10.7L0 139.4 4 114l18.7.5c1-3.5 2.1-7 3.4-10.4L10.9 93.7l11.8-23.1 17.2 6.1c2-3 4.2-6 6.4-8.8L35 53.5 53.5 35l14.3 11.1a132 132 0 018.9-6.4l-6.1-17.1 23-11.8 10.3 15c3.4-1.4 6.9-2.5 10.4-3.5l-.5-18 25.6-4 5 17.1c3.8-.2 7.5-.2 11.2 0l5-17.5 25.6 4zm-52.5 43.3A104 104 0 10166.1 253a104 104 0 00-32.4-205.7zm109.6 88.4a93.8 93.8 0 11-185.4 29.1 93.8 93.8 0 01185.4-29.1zM150 84.5A65.7 65.7 0 11150 216a65.7 65.7 0 010-131.4zm-.5 16a49.3 49.3 0 100 98.6 49.3 49.3 0 000-98.6z" fill="#D8D8D8" fill-rule="evenodd"/>
</svg>
